# xmcd
#
# Track frame offsets: 
#        150
#        18797
#        38485
#        48570
#        65370
#        76990
#        97721
#        111634
#        125322
#        141928
#
# Disc length: 2072 seconds
#
# Revision: 0
# Processed by: cddbd v1.5.2PL0 Copyright (c) Steve Scherf et al.
# Submitted via: ExactAudioCopy v1.0b3
#
DISCID=7908160a
DTITLE=MANOLO OTERO - CANTANDO
DYEAR=1982
DGENRE=Latin
TTITLE0=CANTANDO
TTITLE1=TE EMPECE A ECHAR DE MENOS 
TTITLE2=TE QUIERO ASI
TTITLE3=ESTAMOS SOLOS
TTITLE4=SANTA MARTA
TTITLE5=TU Y YO
TTITLE6=PIEL CANELA
TTITLE7=YA NADA ES IGUAL
TTITLE8=AMOR DE MADRUGADA
TTITLE9=NO HAGO OTRA COSA QUE PENSAR EN TI
EXTD=
EXTT0=
EXTT1=
EXTT2=
EXTT3=
EXTT4=
EXTT5=
EXTT6=
EXTT7=
EXTT8=
EXTT9=
PLAYORDER=
